<?xml version="1.0" encoding="utf-8"?>
<!-- Generator: Adobe Illustrator 22.0.0, SVG Export Plug-In . SVG Version: 6.00 Build 0)  -->
<svg version="1.1" id="Layer_1" xmlns="http://www.w3.org/2000/svg" xmlns:xlink="http://www.w3.org/1999/xlink" x="0px" y="0px"
	 viewBox="0 0 25.7 26.2" style="enable-background:new 0 0 25.7 26.2;" xml:space="preserve">
<style type="text/css">
	.st0{fill:#F3AF1C;}
</style>
<g>
	<path class="st0" d="M25.2,8c0-1-0.2-2.1-0.6-3.1c-0.3-0.8-0.8-1.6-1.4-2.2c-0.6-0.6-1.4-1.1-2.2-1.4c-1-0.4-2-0.6-3-0.6
		c-1.3-0.1-1.8-0.1-5.1-0.1c-3.4,0-3.8,0-5.1,0.1c-1,0-2.1,0.2-3,0.6C3.9,1.6,3.1,2.1,2.5,2.7S1.4,4.1,1.1,4.9c-0.4,1-0.6,2-0.6,3
		c-0.1,1.3-0.1,1.8-0.1,5.1s0,3.8,0.1,5.1c0,1,0.2,2.1,0.6,3c0.3,0.8,0.8,1.6,1.4,2.2c0.6,0.6,1.4,1.1,2.2,1.4c1,0.4,2,0.6,3,0.6
		c1.3,0.1,1.8,0.1,5.1,0.1s3.8,0,5.1-0.1c1,0,2.1-0.2,3-0.6c0.8-0.3,1.6-0.8,2.2-1.4c0.6-0.6,1.1-1.4,1.4-2.2c0.4-1,0.6-2,0.6-3
		c0.1-1.3,0.1-1.8,0.1-5.1C25.3,9.7,25.3,9.3,25.2,8z M12.8,19.5c-3.5,0-6.4-2.9-6.4-6.4c0-3.5,2.9-6.4,6.4-6.4
		c1.7,0,3.3,0.7,4.5,1.9c1.2,1.2,1.9,2.8,1.9,4.5s-0.7,3.3-1.9,4.5C16.2,18.8,14.5,19.5,12.8,19.5z M19.5,7.9
		c-0.8,0-1.5-0.7-1.5-1.5c0-0.2,0-0.4,0.1-0.6c0.1-0.2,0.2-0.3,0.3-0.5c0.1-0.1,0.3-0.2,0.5-0.3c0.2-0.1,0.4-0.1,0.6-0.1
		c0.2,0,0.4,0,0.6,0.1c0.2,0.1,0.3,0.2,0.5,0.3c0.1,0.1,0.2,0.3,0.3,0.5C20.9,6,21,6.2,21,6.4C21,7.2,20.3,7.9,19.5,7.9z"/>
	<path class="st0" d="M12.8,17.2c2.3,0,4.1-1.9,4.1-4.2s-1.9-4.2-4.1-4.2c-2.3,0-4.1,1.9-4.1,4.2S10.6,17.2,12.8,17.2z"/>
</g>
</svg>
