<?xml version="1.0" encoding="utf-8"?>
<!-- Generator: Adobe Illustrator 22.0.0, SVG Export Plug-In . SVG Version: 6.00 Build 0)  -->
<svg version="1.1" id="Layer_1" xmlns="http://www.w3.org/2000/svg" xmlns:xlink="http://www.w3.org/1999/xlink" x="0px" y="0px"
	 viewBox="0 0 25.7 26.2" style="enable-background:new 0 0 25.7 26.2;" xml:space="preserve">
<style type="text/css">
	.st0{fill:#F3AF1C;}
</style>
<path class="st0" d="M5.3,0.6c-2.7,0-4.9,2.2-4.9,4.9v15.2c0,2.7,2.2,4.9,4.9,4.9h15.2c2.7,0,4.9-2.2,4.9-4.9V5.5
	c0-2.7-2.2-4.9-4.9-4.9H5.3z M6.5,4.7c1.3,0,2.1,0.8,2.1,2c0,1.1-0.8,2-2.1,2h0c-1.3,0-2.1-0.9-2.1-2C4.4,5.6,5.2,4.7,6.5,4.7
	L6.5,4.7z M17.6,9.9c2.5,0,4.3,1.6,4.3,5.1v6.5h-3.8v-6.1c0-1.5-0.5-2.6-1.9-2.6c-1,0-1.7,0.7-1.9,1.4c-0.1,0.2-0.1,0.6-0.1,0.9v6.3
	h-3.8c0,0,0-10.3,0-11.4h3.8v1.6C14.7,11,15.6,9.9,17.6,9.9L17.6,9.9z M4.6,10.2h3.8v11.4H4.6V10.2z"/>
</svg>
