<svg width="50" height="50" viewBox="0 0 50 50" fill="none" xmlns="http://www.w3.org/2000/svg">
<circle cx="25" cy="25" r="25" fill="#FFE9D1"/>
<path d="M29.9719 19.2512C29.7423 19.1235 29.4898 19.0423 29.2288 19.0122C28.9678 18.9821 28.7035 19.0037 28.4509 19.0759C28.1982 19.1481 27.9623 19.2693 27.7566 19.4327C27.5509 19.5961 27.3794 19.7985 27.2519 20.0282L23.5389 26.7102L21.4139 24.5852C21.2294 24.3942 21.0087 24.2419 20.7647 24.137C20.5207 24.0322 20.2583 23.9771 19.9927 23.9747C19.7272 23.9724 19.4638 24.023 19.218 24.1236C18.9722 24.2242 18.7489 24.3727 18.5611 24.5605C18.3733 24.7482 18.2248 24.9715 18.1243 25.2173C18.0237 25.4631 17.9731 25.7265 17.9754 25.992C17.9777 26.2576 18.0329 26.52 18.1377 26.7641C18.2425 27.0081 18.3949 27.2288 18.5859 27.4132L22.5859 31.4132C22.9639 31.7922 23.4739 32.0002 23.9999 32.0002L24.2769 31.9802C24.5835 31.9374 24.8759 31.8239 25.1311 31.6488C25.3864 31.4737 25.5975 31.2418 25.7479 30.9712L30.7479 21.9712C30.8756 21.7417 30.9568 21.4893 30.9869 21.2283C31.0169 20.9674 30.9953 20.7031 30.9233 20.4505C30.8512 20.1979 30.7301 19.962 30.5669 19.7563C30.4036 19.5505 30.2015 19.3789 29.9719 19.2512Z" fill="#F5AF02"/>
</svg>
