<svg width="191" height="60" viewBox="0 0 191 60" fill="none" xmlns="http://www.w3.org/2000/svg">
<g clip-path="url(#clip0)">
<path d="M77.9896 30.4213C78.5969 30.4213 79.089 29.9285 79.089 29.3214C79.089 28.7143 78.5969 28.2217 77.9896 28.2217H72.6128V57.1813H77.9896C78.5969 57.1813 79.089 56.6887 79.089 56.0816C79.089 55.4745 78.5969 54.9819 77.9896 54.9819H74.8122V36.4698H77.9896C78.5969 36.4698 79.089 35.9773 79.089 35.3702C79.089 34.7631 78.5969 34.2705 77.9896 34.2705H74.8122V30.4213H77.9896Z" fill="white"/>
<path d="M99.4947 30.4213C100.102 30.4213 100.594 29.9285 100.594 29.3214C100.594 28.7143 100.102 28.2217 99.4947 28.2217H94.1182V57.1813H99.4947C100.102 57.1813 100.594 56.6887 100.594 56.0816C100.594 55.4745 100.102 54.9819 99.4947 54.9819H96.3175V30.4213H99.4947Z" fill="white"/>
<path d="M89.6705 28.2518C89.0824 28.1116 88.4867 28.4737 88.345 29.0652L86.2068 37.9847L84.0684 29.0652C83.9277 28.4739 83.3325 28.1116 82.7429 28.2518C82.1523 28.3935 81.7883 28.987 81.93 29.5778L85.0758 42.7015L81.93 55.8252C81.7883 56.4161 82.1523 57.0093 82.7429 57.1512C82.8293 57.172 82.9149 57.1811 83.0003 57.1811C83.4973 57.1811 83.948 56.8425 84.0684 56.3378L86.2068 47.4182L88.345 56.3378C88.4657 56.8425 88.9163 57.1811 89.4131 57.1811C89.4985 57.1811 89.5841 57.172 89.6705 57.1512C90.2613 57.0093 90.6253 56.4161 90.4834 55.8252L87.3376 42.7015L90.4834 29.5778C90.6253 28.987 90.2611 28.3935 89.6705 28.2518Z" fill="white"/>
<path d="M137.955 30.4213C138.563 30.4213 139.055 29.9285 139.055 29.3214C139.055 28.7143 138.563 28.2217 137.955 28.2217H132.578V57.1813H137.955C138.563 57.1813 139.055 56.6887 139.055 56.0816C139.055 55.4745 138.563 54.9819 137.955 54.9819H134.778V30.4213H137.955Z" fill="white"/>
<path d="M186.557 30.4213H189.734C190.341 30.4213 190.834 29.9285 190.834 29.3214C190.834 28.7143 190.341 28.2217 189.734 28.2217H184.357V34.04L188.635 38.9587V54.9819H184.907C184.3 54.9819 183.807 55.4745 183.807 56.0816C183.807 56.6887 184.3 57.1813 184.907 57.1813H190.834V38.1366L186.557 33.2179V30.4213Z" fill="white"/>
<path d="M141.981 50.3144H149.631V28.2461H141.981V50.3144ZM144.132 30.3969H147.479V48.1636H144.132V30.3969Z" fill="white"/>
<path d="M117.701 54.9819H114.525V29.3214C114.525 28.7143 114.032 28.2217 113.425 28.2217C112.817 28.2217 112.325 28.7143 112.325 29.3214V57.1813H117.701C118.309 57.1813 118.801 56.6887 118.801 56.0816C118.801 55.4745 118.309 54.9819 117.701 54.9819Z" fill="white"/>
<path d="M108.629 30.4213C109.237 30.4213 109.729 29.9285 109.729 29.3214C109.729 28.7143 109.237 28.2217 108.629 28.2217H103.252V57.1813H108.629C109.237 57.1813 109.729 56.6887 109.729 56.0816C109.729 55.4745 109.237 54.9819 108.629 54.9819H105.452V36.4698H108.629C109.237 36.4698 109.729 35.9773 109.729 35.3702C109.729 34.7631 109.237 34.2705 108.629 34.2705H105.452V30.4213H108.629Z" fill="white"/>
<path d="M148.555 55.0059H143.056C142.462 55.0059 141.981 55.4871 141.981 56.0811C141.981 56.6754 142.462 57.1564 143.056 57.1564H148.555C149.149 57.1564 149.631 56.6754 149.631 56.0811C149.631 55.4871 149.149 55.0059 148.555 55.0059Z" fill="white"/>
<path d="M153.162 27.0166V56.0814C153.162 56.6756 153.643 57.1566 154.237 57.1566C154.832 57.1566 155.313 56.6756 155.313 56.0814V37.631H158.049V56.0814C158.049 56.6756 158.53 57.1566 159.125 57.1566C159.719 57.1566 160.2 56.6756 160.2 56.0814V37.631H162.936V56.0814C162.936 56.6756 163.417 57.1566 164.011 57.1566C164.606 57.1566 165.087 56.6756 165.087 56.0814V27.0166L159.124 32.0121L153.162 27.0166Z" fill="white"/>
<path d="M168.68 27.0166V56.0814C168.68 56.6756 169.161 57.1566 169.755 57.1566C170.349 57.1566 170.831 56.6756 170.831 56.0814V37.631H173.567V56.0814C173.567 56.6756 174.048 57.1566 174.642 57.1566C175.236 57.1566 175.718 56.6756 175.718 56.0814V37.631H178.454V56.0814C178.454 56.6756 178.935 57.1566 179.529 57.1566C180.124 57.1566 180.605 56.6756 180.605 56.0814V27.0166L174.642 32.0121L168.68 27.0166Z" fill="white"/>
<path d="M65.6204 18.3704C64.0453 18.0404 62.4533 17.7685 60.8509 17.5385C60.4363 16.7167 59.982 15.9188 59.4926 15.1444C59.692 15.1106 59.8914 15.0121 60.0716 14.8243C63.224 11.5459 58.082 9.27426 55.5117 8.41716C54.5576 8.0993 53.5852 7.81771 52.6005 7.56821C48.0922 4.06356 42.5582 1.79583 36.6037 1.21538C35.3656 0.739083 34.1037 0.340513 32.8266 0.0347418C31.4478 -0.295214 30.8627 1.82545 32.2415 2.15565C33.3093 2.41107 34.3592 2.74202 35.3917 3.12059C35.5531 3.24744 35.7565 3.33529 36.006 3.35479C36.0131 3.35553 36.02 3.35627 36.0267 3.35701C37.7898 4.05123 39.4869 4.91918 41.0911 5.93866C38.025 5.77406 34.9655 5.77702 32.0129 5.8587C27.8847 5.97247 23.8109 6.5122 19.787 7.43001C17.081 8.04722 13.5509 8.94702 11.6941 11.217C10.2632 12.9652 11.1092 15.1599 12.7943 16.341C13.9589 17.1574 15.0564 15.25 13.9048 14.4425C12.762 13.6414 13.2829 12.4119 14.8162 11.4897C19.9057 8.42753 27.2307 8.18987 33.006 8.03094C36.8618 7.92482 40.7431 8.10177 44.5871 8.53858C47.2551 10.8288 49.5273 13.5684 51.1933 16.6332C46.3622 16.3828 41.5116 16.3726 36.7607 16.3655C27.5609 16.3504 18.0311 16.4227 8.97252 18.2218C6.97255 18.6192 -1.26278 20.0883 0.165384 23.855C0.942028 25.9036 4.19988 26.661 6.09201 27.0828C7.47402 27.3905 8.06113 25.2706 6.67714 24.9619C5.63175 24.7294 1.20658 23.6645 2.9457 22.514C5.84621 20.5962 10.2099 20.1263 13.6376 19.6937C21.2863 18.7295 29.0606 18.5733 36.7604 18.5649C41.9415 18.5592 47.1418 18.67 52.3219 19.0128C52.7007 19.9133 53.0443 20.8299 53.3179 21.7716C54.1578 24.6647 54.5163 27.6087 54.4455 30.5072C37.9719 31.0598 21.349 30.7362 5.0402 28.833C3.63301 28.6691 3.6488 30.87 5.0402 31.0326C21.3013 32.9307 37.8752 33.2579 54.3019 32.7118C53.9946 35.7732 53.2108 38.7524 52.0011 41.5345C46.1144 41.9298 40.1984 42.0093 34.3009 41.934C30.1929 41.8817 26.0814 41.6317 21.9859 41.319C18.5413 41.0549 15.0934 40.7048 11.6966 40.0626C10.4244 39.8225 5.89779 39.2292 7.79534 37.9691C8.9703 37.1888 7.87037 35.2828 6.68479 36.0703C0.424758 40.2289 11.6077 42.3178 14.1857 42.6916C20.5992 43.621 27.1507 44.0021 33.6299 44.123C35.4917 44.1581 43.1379 44.3348 50.8639 43.8607C48.6734 47.8888 45.554 51.3855 41.6888 53.9358C37.8014 54.0753 33.8797 53.8282 30.0576 53.4403C28.9059 53.3228 9.96585 50.4512 14.1269 46.7175C15.1849 45.7686 13.624 44.218 12.5719 45.1622C6.41037 50.6901 21.0627 54.2135 23.5656 54.6984C28.088 55.5747 32.8017 56.1066 37.5013 56.186C35.8411 56.8978 34.0874 57.459 32.2415 57.8314C30.8518 58.1112 31.4419 60.2314 32.8266 59.952C34.3118 59.6527 35.732 59.2455 37.0926 58.7514C37.0346 59.4409 37.5822 60.1998 38.4472 59.952C42.2312 58.8708 45.8087 57.3264 49.0224 55.3613C53.4342 54.6323 58.9785 53.2497 60.9299 48.9384C61.5098 47.6568 59.6148 46.5376 59.0304 47.8285C58.0491 49.9973 55.944 51.2431 53.6245 52.0348C56.7184 49.3993 59.2658 46.2743 61.0503 42.7101C66.5016 41.6798 70.2047 39.9523 68.9187 37.0762C68.3407 35.7833 66.4456 36.9032 67.0194 38.186C67.3834 39.0002 65.0276 39.7075 62.1293 40.2566C63.0723 37.7842 63.6655 35.1291 63.843 32.3028C65.2203 32.2305 66.5954 32.1535 67.969 32.0711C69.378 31.9865 69.3863 29.7863 67.969 29.8715C66.6117 29.9529 65.2519 30.0297 63.8906 30.1012C63.8817 29.4011 63.857 28.6953 63.7973 27.9764C63.5636 25.1553 62.9188 22.4686 61.9333 19.957C64.0656 20.2531 66.2006 20.65 68.238 21.3289C69.7723 21.8392 70.6551 22.1144 69.1252 23.1189C67.9446 23.8928 69.0453 25.7985 70.235 25.0174C75.5072 21.5579 68.8484 19.0473 65.6204 18.3704ZM58.5165 13.2695C58.4534 13.3354 58.4013 13.4033 58.3579 13.4729C57.7717 12.6738 57.1446 11.9075 56.4818 11.1723C58.0973 11.8268 59.1873 12.5711 58.5165 13.2695ZM43.7818 5.08231C44.8553 5.48556 45.8968 5.951 46.9012 6.47567C46.3933 6.40633 45.8834 6.3434 45.3726 6.2859C44.8548 5.86759 44.3232 5.4673 43.7818 5.08231ZM48.396 9.0603C48.8691 9.1368 49.3432 9.21133 49.8148 9.29573C50.0719 9.34163 50.8288 9.49983 51.7985 9.73674C54.3051 11.8216 56.4329 14.3389 58.0718 17.1843C56.6563 17.0259 55.234 16.8995 53.8083 16.7971C52.4505 13.9637 50.6006 11.3535 48.396 9.0603ZM42.5375 56.0856C42.6404 56.0799 42.7428 56.0705 42.8455 56.0634C42.5701 56.1816 42.2917 56.2934 42.0136 56.4049C42.189 56.2996 42.3652 56.1947 42.5375 56.0856ZM48.167 53.2905C47.4012 53.4237 46.6312 53.5323 45.858 53.6244C49.0396 50.885 51.5613 47.4848 53.3463 43.6855C55.0771 43.5443 56.7801 43.3661 58.3914 43.142C55.9677 47.239 52.3876 50.6565 48.167 53.2905ZM59.67 40.6717C57.6567 40.9765 55.6718 41.205 54.3389 41.3424C55.3781 38.5797 56.0509 35.65 56.3307 32.6434C58.1246 32.5763 59.9156 32.4953 61.7048 32.4087C61.5197 35.3707 60.8092 38.1327 59.67 40.6717ZM56.4578 30.4381C56.5245 28.1269 56.3685 25.7851 55.9625 23.451C55.7091 21.9955 55.3229 20.5737 54.8209 19.1939C56.3265 19.3171 57.829 19.4674 59.3295 19.6364C60.4904 22.2203 61.2714 25.0218 61.5984 27.9759C61.6819 28.7318 61.7233 29.4729 61.7421 30.2069C59.9825 30.2922 58.2216 30.3717 56.4578 30.4381Z" fill="#F58203"/>
</g>
<defs>
<clipPath id="clip0">
<rect width="190.834" height="60" fill="white"/>
</clipPath>
</defs>
</svg>
