<?xml version="1.0" encoding="utf-8"?>
<!-- Generator: Adobe Illustrator 22.0.0, SVG Export Plug-In . SVG Version: 6.00 Build 0)  -->
<svg version="1.1" id="Layer_1" xmlns="http://www.w3.org/2000/svg" xmlns:xlink="http://www.w3.org/1999/xlink" x="0px" y="0px"
	 viewBox="0 0 1188 397" style="enable-background:new 0 0 1188 397;" xml:space="preserve">
<style type="text/css">
	.st0{fill:none;}
	.st1{fill:#FF5757;}
	.st2{fill:none;stroke:#FF5757;stroke-width:3;}
</style>
<g>
	<rect x="18" y="125.6" class="st0" width="1169.8" height="396.8"/>
</g>
<g>
	<circle class="st1" cx="123.8" cy="230.8" r="9.9"/>
	<g>
		<circle class="st2" cx="123.8" cy="230.8" r="12.3"/>
	</g>
</g>
<g>
	<circle class="st1" cx="205.8" cy="305.8" r="9.9"/>
	<g>
		<circle class="st2" cx="205.8" cy="305.8" r="12.3"/>
	</g>
</g>
<g>
	<circle class="st1" cx="147.8" cy="277.8" r="9.9"/>
	<g>
		<circle class="st2" cx="147.8" cy="277.8" r="12.3"/>
	</g>
</g>
<g>
	<circle class="st1" cx="17.8" cy="89.8" r="9.9"/>
	<g>
		<circle class="st2" cx="17.8" cy="89.8" r="12.3"/>
	</g>
</g>
<g>
	<circle class="st1" cx="60.8" cy="107.8" r="9.9"/>
	<g>
		<circle class="st2" cx="60.8" cy="107.8" r="12.3"/>
	</g>
</g>
<g>
	<circle class="st1" cx="205.8" cy="103.8" r="9.9"/>
	<g>
		<circle class="st2" cx="205.8" cy="103.8" r="12.3"/>
	</g>
</g>
<g>
	<circle class="st1" cx="233.8" cy="197.8" r="9.9"/>
	<g>
		<circle class="st2" cx="233.8" cy="197.8" r="12.3"/>
	</g>
</g>
<g>
	<circle class="st1" cx="151.8" cy="69.8" r="9.9"/>
	<g>
		<circle class="st2" cx="151.8" cy="69.8" r="12.3"/>
	</g>
</g>
<g>
	<circle class="st1" cx="64.8" cy="173.8" r="9.9"/>
	<g>
		<circle class="st2" cx="64.8" cy="173.8" r="12.3"/>
	</g>
</g>
<g>
	<circle class="st1" cx="119.8" cy="173.8" r="9.9"/>
	<g>
		<circle class="st2" cx="119.8" cy="173.8" r="12.3"/>
	</g>
</g>
<g>
	
		<ellipse transform="matrix(0.1602 -0.9871 0.9871 0.1602 -117.4407 521.637)" class="st1" cx="247.8" cy="329.8" rx="9.9" ry="9.9"/>
	<g>
		<circle class="st2" cx="247.8" cy="329.8" r="12.3"/>
	</g>
</g>
<g>
	<circle class="st1" cx="673.8" cy="333.8" r="9.9"/>
	<g>
		<circle class="st2" cx="673.8" cy="333.8" r="12.3"/>
	</g>
</g>
<g>
	<circle class="st1" cx="805.8" cy="258.8" r="9.9"/>
	<g>
		<circle class="st2" cx="805.8" cy="258.8" r="12.3"/>
	</g>
</g>
<g>
	<circle class="st1" cx="860.8" cy="187.8" r="9.9"/>
	<g>
		<circle class="st2" cx="860.8" cy="187.8" r="12.3"/>
	</g>
</g>
<g>
	<circle class="st1" cx="1112.8" cy="69.8" r="9.9"/>
	<g>
		<circle class="st2" cx="1112.8" cy="69.8" r="12.3"/>
	</g>
</g>
<g>
	<circle class="st1" cx="1035.8" cy="163.8" r="9.9"/>
	<g>
		<circle class="st2" cx="1035.8" cy="163.8" r="12.3"/>
	</g>
</g>
<g>
	<circle class="st1" cx="982.8" cy="69.8" r="9.9"/>
	<g>
		<circle class="st2" cx="982.8" cy="69.8" r="12.3"/>
	</g>
</g>
<g>
	<circle class="st1" cx="932.8" cy="119.8" r="9.9"/>
	<g>
		<circle class="st2" cx="932.8" cy="119.8" r="12.3"/>
	</g>
</g>
</svg>
