<svg width="186" height="25" viewBox="0 0 186 25" fill="none" xmlns="http://www.w3.org/2000/svg">
<path d="M13.459 0C6.57694 0 0.998047 5.59635 0.998047 12.5C0.998047 19.4036 6.57694 25 13.459 25C20.3412 25 25.92 19.4036 25.92 12.5C25.92 5.59635 20.3412 0 13.459 0ZM16.4107 8.63802H14.5377C14.3157 8.63802 14.0691 8.93099 14.0691 9.32031V10.6771H16.412L16.0577 12.612H14.0691V18.4206H11.8586V12.612H9.85314V10.6771H11.8586V9.53906C11.8586 7.90625 12.9879 6.57943 14.5377 6.57943H16.4107V8.63802Z" fill="#F5AF02"/>
<path d="M78.6335 7.37887C78.6196 6.32917 78.4237 5.28991 78.0546 4.30757C77.7345 3.47898 77.2457 2.72646 76.6193 2.09811C75.9929 1.46976 75.2427 0.979392 74.4167 0.658333C73.45 0.294319 72.4288 0.0974904 71.3964 0.0762281C70.0673 0.0166316 69.6459 0 66.2719 0C62.898 0 62.4655 9.29361e-08 61.146 0.0762281C60.1142 0.0976467 59.0934 0.294473 58.1272 0.658333C57.301 0.979168 56.5507 1.46946 55.9243 2.09784C55.2979 2.72622 54.8091 3.47885 54.4893 4.30757C54.1257 5.27655 53.9299 6.30074 53.9104 7.3359C53.851 8.67059 53.833 9.0933 53.833 12.4778C53.833 15.8623 53.833 16.2948 53.9104 17.6197C53.9311 18.6565 54.1259 19.6793 54.4893 20.6509C54.8097 21.4793 55.2988 22.2316 55.9254 22.8598C56.552 23.4879 57.3024 23.978 58.1285 24.2987C59.0921 24.6773 60.1131 24.8883 61.1474 24.9224C62.4779 24.982 62.8993 25 66.2733 25C69.6473 25 70.0797 25 71.3992 24.9224C72.4315 24.902 73.4528 24.7056 74.4195 24.3417C75.2453 24.0202 75.9953 23.5297 76.6216 22.9014C77.2479 22.2731 77.7369 21.5208 78.0573 20.6924C78.4207 19.7223 78.6155 18.6994 78.6363 17.6613C78.6957 16.328 78.7136 15.9053 78.7136 12.5194C78.7109 9.13488 78.7109 8.70523 78.6335 7.37887ZM66.2636 18.8782C62.7349 18.8782 59.8763 16.0106 59.8763 12.4709C59.8763 8.93115 62.7349 6.06359 66.2636 6.06359C67.9577 6.06359 69.5823 6.73864 70.7802 7.94025C71.978 9.14185 72.651 10.7716 72.651 12.4709C72.651 14.1702 71.978 15.7999 70.7802 17.0015C69.5823 18.2031 67.9577 18.8782 66.2636 18.8782ZM72.9052 7.32066C72.0804 7.32066 71.4158 6.65262 71.4158 5.82659C71.4158 5.63048 71.4543 5.43628 71.5291 5.2551C71.6039 5.07391 71.7136 4.90929 71.8518 4.77061C71.9901 4.63194 72.1542 4.52194 72.3348 4.44689C72.5154 4.37184 72.709 4.33321 72.9045 4.33321C73.1 4.33321 73.2936 4.37184 73.4742 4.44689C73.6548 4.52194 73.819 4.63194 73.9572 4.77061C74.0954 4.90929 74.2051 5.07391 74.2799 5.2551C74.3547 5.43628 74.3932 5.63048 74.3932 5.82659C74.3932 6.65262 73.7273 7.32066 72.9052 7.32066Z" fill="#F5AF02"/>
<path d="M66.2634 16.6328C68.5549 16.6328 70.4125 14.7694 70.4125 12.4707C70.4125 10.172 68.5549 8.30859 66.2634 8.30859C63.9719 8.30859 62.1143 10.172 62.1143 12.4707C62.1143 14.7694 63.9719 16.6328 66.2634 16.6328Z" fill="#F5AF02"/>
<path d="M111.552 0C108.866 0 106.668 2.20491 106.668 4.89907V20.1017C106.668 22.7958 108.866 25 111.552 25H126.707C129.393 25 131.59 22.7959 131.59 20.1017V4.89907C131.59 2.20496 129.393 0 126.707 0H111.552ZM112.78 4.1255C114.068 4.1255 114.861 4.97352 114.886 6.08824C114.886 7.17834 114.068 8.05019 112.755 8.05019H112.731C111.468 8.05019 110.651 7.17839 110.651 6.08824C110.651 4.97355 111.493 4.1255 112.78 4.1255H112.78ZM123.877 9.33553C126.354 9.33553 128.21 10.9593 128.21 14.4487V20.9627H124.447V14.8854C124.447 13.3582 123.902 12.3163 122.54 12.3163C121.5 12.3163 120.88 13.0186 120.608 13.697C120.509 13.9397 120.484 14.2787 120.484 14.6182V20.9627H116.721C116.721 20.9627 116.77 10.6679 116.721 9.60195H120.485V11.2107C120.985 10.4367 121.88 9.3355 123.877 9.3355V9.33553ZM110.873 9.60277H114.637V20.9628H110.873V9.60277Z" fill="#F5AF02"/>
<path d="M172.449 2C159.726 2 159.503 3.13506 159.503 12C159.503 20.8649 159.726 22 172.449 22C185.173 22 185.396 20.8649 185.396 12C185.396 3.13506 185.173 2 172.449 2ZM176.599 12.4338L170.786 15.1558C170.277 15.3922 169.86 15.1273 169.86 14.5636V9.43636C169.86 8.87403 170.277 8.60779 170.786 8.84416L176.599 11.5662C177.108 11.8052 177.108 12.1948 176.599 12.4338Z" fill="#F5AF02"/>
</svg>
